<svg width="111" height="23" viewBox="0 0 111 23" fill="none" xmlns="http://www.w3.org/2000/svg">
<path d="M3.56346 7.60203C3.88021 7.06356 4.36326 6.61218 5.0126 6.24792C5.67778 5.88365 6.48549 5.70152 7.43575 5.70152C8.35433 5.70152 9.17788 5.87574 9.90641 6.22416C10.6349 6.57259 11.213 7.0398 11.6406 7.62579C12.0682 8.21178 12.3929 8.86112 12.6146 9.57381C12.8364 10.2707 12.9472 10.9992 12.9472 11.7594C12.9472 12.5196 12.8364 13.2561 12.6146 13.9687C12.3929 14.6656 12.0682 15.307 11.6406 15.893C11.213 16.479 10.6349 16.9462 9.90641 17.2946C9.17788 17.6431 8.35433 17.8173 7.43575 17.8173C5.99453 17.8173 4.86214 17.3897 4.03858 16.5344V22.6873H-2.23823e-06V6.05787H3.56346V7.60203ZM8.14844 13.6837C8.57606 13.1452 8.78986 12.5038 8.78986 11.7594C8.78986 11.015 8.57606 10.3736 8.14844 9.83513C7.73666 9.29666 7.13484 9.02742 6.34296 9.02742C5.82031 9.02742 5.35311 9.16996 4.94133 9.45503C4.52955 9.72427 4.22864 10.0569 4.03858 10.4528V13.066C4.22864 13.4619 4.52955 13.8025 4.94133 14.0875C5.35311 14.3568 5.82031 14.4914 6.34296 14.4914C7.13484 14.4914 7.73666 14.2221 8.14844 13.6837ZM18.8869 17.4609H14.8483V6.05787H18.8869V17.4609ZM19.172 2.20933C19.172 2.9537 18.9502 3.51593 18.5068 3.89604C18.0792 4.2603 17.5328 4.44243 16.8676 4.44243C16.2024 4.44243 15.6481 4.2603 15.2046 3.89604C14.777 3.51593 14.5632 2.9537 14.5632 2.20933C14.5632 1.4808 14.7849 0.934406 15.2284 0.570141C15.6719 0.190039 16.2183 -1.20128e-05 16.8676 -1.20128e-05C17.5328 -1.20128e-05 18.0792 0.190039 18.5068 0.570141C18.9502 0.934406 19.172 1.4808 19.172 2.20933ZM21.1536 6.05787H30.7749V8.43351L26.1662 14.135H31.1075V17.4609H20.821V15.0853L25.4535 9.38376H21.1536V6.05787ZM32.8462 6.05787H42.4675V8.43351L37.8588 14.135H42.8001V17.4609H32.5136V15.0853L37.1461 9.38376H32.8462V6.05787ZM55.5142 14.2063C55.5142 14.6814 55.7756 14.919 56.2982 14.919C56.4566 14.919 56.607 14.8952 56.7496 14.8477V17.3422C56.1477 17.5797 55.4667 17.6985 54.7065 17.6985C53.4395 17.6985 52.5368 17.2788 51.9983 16.4394C50.8263 17.358 49.5039 17.8173 48.031 17.8173C46.9065 17.8173 45.9642 17.5005 45.204 16.867C44.4438 16.2335 44.0637 15.3783 44.0637 14.3013C44.0637 13.6203 44.2141 13.0264 44.515 12.5196C44.8159 11.997 45.2119 11.601 45.7028 11.3318C46.2096 11.0625 46.7323 10.8646 47.2708 10.7379C47.8251 10.6112 48.4032 10.5478 49.005 10.5478C49.8602 10.5478 50.6838 10.6349 51.4756 10.8091V10.4053C51.4756 9.97767 51.2698 9.63717 50.858 9.38376C50.462 9.11452 49.8761 8.9799 49.1 8.9799C47.8964 8.9799 46.566 9.2729 45.1089 9.85889V6.46173C46.661 5.95492 48.1418 5.70152 49.5514 5.70152C51.4994 5.70152 52.9802 6.10538 53.9938 6.9131C55.0074 7.72082 55.5142 9.09077 55.5142 11.023V14.2063ZM48.221 13.9687C48.221 14.2855 48.3477 14.5547 48.6011 14.7765C48.8545 14.9824 49.1871 15.0853 49.5989 15.0853C50.3116 15.0853 50.9372 14.8873 51.4756 14.4914V12.9472C51.048 12.8047 50.565 12.7334 50.0265 12.7334C48.8229 12.7334 48.221 13.1452 48.221 13.9687ZM57.8039 9.33625C57.8039 8.05341 58.2712 7.12691 59.2056 6.55675C60.14 5.9866 61.3278 5.70152 62.769 5.70152C64.2578 5.70152 65.6911 6.02619 67.0689 6.67553V9.88265C66.5621 9.53422 65.9286 9.24914 65.1684 9.02742C64.4241 8.78985 63.7193 8.67107 63.0541 8.67107C62.3256 8.67107 61.9613 8.86112 61.9613 9.24122C61.9613 9.5263 62.1672 9.76387 62.579 9.95392C62.9908 10.1281 63.4896 10.2944 64.0756 10.4528C64.6616 10.6112 65.2476 10.8091 65.8336 11.0467C66.4196 11.2684 66.9185 11.6406 67.3303 12.1633C67.742 12.6859 67.9479 13.3432 67.9479 14.135C67.9479 16.5899 66.1345 17.8173 62.5077 17.8173C60.6705 17.8173 59.1422 17.4689 57.9227 16.772V13.5649C59.1422 14.3726 60.5993 14.7765 62.2939 14.7765C63.2917 14.7765 63.7906 14.5864 63.7906 14.2063C63.7906 13.9371 63.5847 13.7153 63.1729 13.5411C62.7611 13.3511 62.2622 13.1769 61.6762 13.0185C61.0902 12.8601 60.5043 12.6621 59.9183 12.4246C59.3323 12.1712 58.8334 11.7832 58.4216 11.2605C58.0098 10.7379 57.8039 10.0965 57.8039 9.33625ZM69.7612 0.831461H73.7998V6.9131C74.7025 6.10538 75.7557 5.70152 76.9594 5.70152C78.4481 5.70152 79.5805 6.14497 80.3566 7.03188C81.1326 7.90295 81.5206 9.0195 81.5206 10.3815V17.4609H77.482V10.9279C77.482 10.3419 77.3237 9.89849 77.0069 9.59757C76.6902 9.29666 76.2705 9.1462 75.7478 9.1462C74.9718 9.1462 74.3224 9.47879 73.7998 10.144V17.4609H69.7612V0.831461ZM85.0793 16.2494C83.8598 15.1882 83.25 13.6916 83.25 11.7594C83.25 9.82722 83.8598 8.33848 85.0793 7.2932C86.3146 6.23208 87.8429 5.70152 89.6642 5.70152C91.4856 5.70152 93.006 6.23208 94.2255 7.2932C95.4608 8.33848 96.0785 9.82722 96.0785 11.7594C96.0785 13.6916 95.4608 15.1882 94.2255 16.2494C93.006 17.2946 91.4856 17.8173 89.6642 17.8173C87.8429 17.8173 86.3146 17.2946 85.0793 16.2494ZM91.3747 13.5411C91.739 13.066 91.9211 12.4721 91.9211 11.7594C91.9211 11.0467 91.739 10.4528 91.3747 9.97767C91.0104 9.50255 90.4403 9.26498 89.6642 9.26498C88.8882 9.26498 88.318 9.50255 87.9538 9.97767C87.5895 10.4528 87.4074 11.0467 87.4074 11.7594C87.4074 12.4721 87.5895 13.066 87.9538 13.5411C88.318 14.0163 88.8882 14.2538 89.6642 14.2538C90.4403 14.2538 91.0104 14.0163 91.3747 13.5411ZM101.489 7.60203C101.806 7.06356 102.289 6.61218 102.938 6.24792C103.603 5.88365 104.411 5.70152 105.361 5.70152C106.28 5.70152 107.103 5.87574 107.832 6.22416C108.56 6.57259 109.139 7.0398 109.566 7.62579C109.994 8.21178 110.318 8.86112 110.54 9.57381C110.762 10.2707 110.873 10.9992 110.873 11.7594C110.873 12.5196 110.762 13.2561 110.54 13.9687C110.318 14.6656 109.994 15.307 109.566 15.893C109.139 16.479 108.56 16.9462 107.832 17.2946C107.103 17.6431 106.28 17.8173 105.361 17.8173C103.92 17.8173 102.788 17.3897 101.964 16.5344V22.6873H97.9255V6.05787H101.489V7.60203ZM106.074 13.6837C106.502 13.1452 106.715 12.5038 106.715 11.7594C106.715 11.015 106.502 10.3736 106.074 9.83513C105.662 9.29666 105.06 9.02742 104.268 9.02742C103.746 9.02742 103.279 9.16996 102.867 9.45503C102.455 9.72427 102.154 10.0569 101.964 10.4528V13.066C102.154 13.4619 102.455 13.8025 102.867 14.0875C103.279 14.3568 103.746 14.4914 104.268 14.4914C105.06 14.4914 105.662 14.2221 106.074 13.6837Z" fill="url(#paint0_linear_202_5)"/>
<defs>
<linearGradient id="paint0_linear_202_5" x1="96.0969" y1="-2.53907" x2="27.2439" y2="41.184" gradientUnits="userSpaceOnUse">
<stop stop-color="#FF6432"/>
<stop offset="1" stop-color="#FFA228"/>
</linearGradient>
</defs>
</svg>
